<mxfile host="65bd71144e">
    <diagram id="Uu9a3Aw_L57QQJSd2uW5" name="Hooks flow">
        <mxGraphModel dx="1307" dy="907" grid="1" gridSize="10" guides="1" tooltips="1" connect="1" arrows="1" fold="1" page="1" pageScale="1" pageWidth="1169" pageHeight="827" math="0" shadow="0">
            <root>
                <mxCell id="0"/>
                <mxCell id="1" parent="0"/>
                <mxCell id="31" value="" style="rounded=1;whiteSpace=wrap;html=1;labelBorderColor=#CC0000;strokeColor=#000000;fillColor=none;dashed=1;strokeWidth=3;" vertex="1" parent="1">
                    <mxGeometry x="268" y="270" width="640" height="120" as="geometry"/>
                </mxCell>
                <mxCell id="4" value="&lt;font size=&quot;1&quot;&gt;&lt;span style=&quot;font-size: 24px&quot;&gt;No&lt;/span&gt;&lt;/font&gt;" style="text;html=1;strokeColor=none;fillColor=none;align=center;verticalAlign=middle;whiteSpace=wrap;rounded=0;fontStyle=1" parent="1" vertex="1">
                    <mxGeometry x="488" y="450" width="60" height="30" as="geometry"/>
                </mxCell>
                <mxCell id="5" value="&lt;font style=&quot;font-size: 22px&quot;&gt;&lt;span&gt;Code &lt;br&gt;changes&lt;/span&gt;&lt;/font&gt;" style="text;html=1;strokeColor=none;fillColor=none;align=center;verticalAlign=middle;whiteSpace=wrap;rounded=0;" parent="1" vertex="1">
                    <mxGeometry x="12" y="220" width="100" height="50" as="geometry"/>
                </mxCell>
                <mxCell id="6" value="&lt;font style=&quot;font-size: 22px&quot;&gt;Staging&lt;/font&gt;" style="text;html=1;strokeColor=none;fillColor=none;align=center;verticalAlign=middle;whiteSpace=wrap;rounded=0;" parent="1" vertex="1">
                    <mxGeometry x="129" y="240" width="110" height="30" as="geometry"/>
                </mxCell>
                <mxCell id="7" value="&lt;font style=&quot;font-size: 22px&quot;&gt;pre-commit framework&lt;/font&gt;" style="text;html=1;strokeColor=none;fillColor=none;align=center;verticalAlign=middle;whiteSpace=wrap;rounded=0;" parent="1" vertex="1">
                    <mxGeometry x="443" y="230" width="300" height="30" as="geometry"/>
                </mxCell>
                <mxCell id="sXQ_shVIrTNTRRweEwVG-30" style="edgeStyle=none;html=1;entryX=0;entryY=0.5;entryDx=0;entryDy=0;fontFamily=Courier New;fontSize=20;strokeWidth=2;" parent="1" source="8" target="9" edge="1">
                    <mxGeometry relative="1" as="geometry"/>
                </mxCell>
                <mxCell id="8" value="&lt;b&gt;&lt;font style=&quot;font-size: 29px&quot;&gt;&amp;lt; / &amp;gt;&lt;/font&gt;&lt;/b&gt;" style="shape=note;whiteSpace=wrap;html=1;backgroundOutline=1;darkOpacity=0.05;fontSize=24;strokeWidth=4;sketch=0;shadow=1;" parent="1" vertex="1">
                    <mxGeometry x="19" y="280" width="80" height="100" as="geometry"/>
                </mxCell>
                <mxCell id="sXQ_shVIrTNTRRweEwVG-29" style="edgeStyle=none;html=1;entryX=0;entryY=0.5;entryDx=0;entryDy=0;fontFamily=Courier New;fontSize=20;strokeWidth=2;" parent="1" source="9" target="24" edge="1">
                    <mxGeometry relative="1" as="geometry"/>
                </mxCell>
                <mxCell id="9" value="" style="ellipse;whiteSpace=wrap;html=1;aspect=fixed;sketch=0;fontSize=24;strokeWidth=6;shadow=1;" parent="1" vertex="1">
                    <mxGeometry x="146.99" y="292.99" width="74.0156" height="74.01" as="geometry"/>
                </mxCell>
                <mxCell id="15" value="" style="edgeStyle=none;html=1;fontSize=22;strokeWidth=2;" parent="1" source="12" target="14" edge="1">
                    <mxGeometry relative="1" as="geometry"/>
                </mxCell>
                <mxCell id="12" value="isort" style="rounded=1;whiteSpace=wrap;html=1;shadow=1;sketch=0;fontSize=22;strokeWidth=4;fillColor=#dae8fc;strokeColor=#6c8ebf;" parent="1" vertex="1">
                    <mxGeometry x="413" y="300" width="98.425" height="60" as="geometry"/>
                </mxCell>
                <mxCell id="17" value="" style="edgeStyle=none;html=1;fontSize=22;strokeWidth=2;" parent="1" source="14" target="16" edge="1">
                    <mxGeometry relative="1" as="geometry"/>
                </mxCell>
                <mxCell id="14" value="black" style="rounded=1;whiteSpace=wrap;html=1;shadow=1;sketch=0;fontSize=22;strokeWidth=4;fillColor=#f5f5f5;strokeColor=#666666;fontColor=#333333;" parent="1" vertex="1">
                    <mxGeometry x="538.79" y="300" width="98.425" height="60" as="geometry"/>
                </mxCell>
                <mxCell id="19" value="" style="edgeStyle=none;html=1;fontSize=24;strokeWidth=2;" parent="1" source="16" target="18" edge="1">
                    <mxGeometry relative="1" as="geometry"/>
                </mxCell>
                <mxCell id="16" value="&lt;font style=&quot;font-size: 22px&quot;&gt;flake8&lt;/font&gt;" style="rounded=1;whiteSpace=wrap;html=1;shadow=1;sketch=0;fontSize=24;strokeWidth=4;fillColor=#d5e8d4;strokeColor=#82b366;" parent="1" vertex="1">
                    <mxGeometry x="669.58" y="299.91999999999996" width="98.425" height="60" as="geometry"/>
                </mxCell>
                <mxCell id="sXQ_shVIrTNTRRweEwVG-27" style="edgeStyle=none;html=1;entryX=0;entryY=0.5;entryDx=0;entryDy=0;fontFamily=Courier New;fontSize=20;strokeWidth=2;" parent="1" source="18" target="sXQ_shVIrTNTRRweEwVG-26" edge="1">
                    <mxGeometry relative="1" as="geometry"/>
                </mxCell>
                <mxCell id="18" value="&lt;font style=&quot;font-size: 22px&quot;&gt;mypy&lt;/font&gt;" style="rounded=1;whiteSpace=wrap;html=1;shadow=1;sketch=0;fontSize=24;strokeWidth=4;fillColor=#ffe6cc;strokeColor=#d79b00;" parent="1" vertex="1">
                    <mxGeometry x="798" y="300.08000000000004" width="98.425" height="60" as="geometry"/>
                </mxCell>
                <mxCell id="20" value="&lt;font face=&quot;Courier New&quot; style=&quot;font-size: 20px&quot;&gt;git&lt;br&gt;add&lt;/font&gt;" style="text;html=1;strokeColor=none;fillColor=none;align=center;verticalAlign=middle;whiteSpace=wrap;rounded=0;shadow=1;sketch=0;fontSize=24;" parent="1" vertex="1">
                    <mxGeometry x="73" y="348.91999999999996" width="110" height="60" as="geometry"/>
                </mxCell>
                <mxCell id="21" value="&lt;font face=&quot;Courier New&quot; style=&quot;font-size: 20px&quot;&gt;git&lt;br&gt;commit&lt;/font&gt;" style="text;html=1;strokeColor=none;fillColor=none;align=center;verticalAlign=middle;whiteSpace=wrap;rounded=0;shadow=1;sketch=0;fontSize=24;" parent="1" vertex="1">
                    <mxGeometry x="198" y="349.91999999999996" width="90" height="50" as="geometry"/>
                </mxCell>
                <mxCell id="sXQ_shVIrTNTRRweEwVG-25" value="" style="edgeStyle=none;html=1;fontFamily=Courier New;fontSize=20;strokeWidth=2;" parent="1" source="24" target="12" edge="1">
                    <mxGeometry relative="1" as="geometry"/>
                </mxCell>
                <mxCell id="24" value="&lt;i style=&quot;font-size: 22px;&quot;&gt;generic&lt;/i&gt;" style="rounded=1;whiteSpace=wrap;html=1;shadow=1;sketch=0;fontSize=22;strokeWidth=4;fillColor=#e1d5e7;strokeColor=#9673a6;align=center;horizontal=1;glass=0;labelPosition=center;verticalLabelPosition=middle;verticalAlign=middle;" parent="1" vertex="1">
                    <mxGeometry x="285" y="300.08000000000004" width="98.425" height="59.84" as="geometry"/>
                </mxCell>
                <mxCell id="26" value="" style="edgeStyle=none;html=1;strokeWidth=3;" edge="1" parent="1" source="sXQ_shVIrTNTRRweEwVG-26" target="25">
                    <mxGeometry relative="1" as="geometry"/>
                </mxCell>
                <mxCell id="sXQ_shVIrTNTRRweEwVG-26" value="" style="ellipse;whiteSpace=wrap;html=1;aspect=fixed;sketch=0;fontSize=24;strokeWidth=6;shadow=1;" parent="1" vertex="1">
                    <mxGeometry x="933" y="293" width="74.01" height="74.0156" as="geometry"/>
                </mxCell>
                <mxCell id="sXQ_shVIrTNTRRweEwVG-31" value="&lt;font style=&quot;font-size: 22px&quot;&gt;checks passed?&lt;/font&gt;" style="text;html=1;strokeColor=none;fillColor=none;align=center;verticalAlign=middle;whiteSpace=wrap;rounded=0;" parent="1" vertex="1">
                    <mxGeometry x="915" y="230" width="110" height="50" as="geometry"/>
                </mxCell>
                <mxCell id="25" value="" style="ellipse;whiteSpace=wrap;html=1;aspect=fixed;sketch=0;fontSize=24;strokeWidth=6;shadow=1;fillColor=#333333;strokeColor=#CC0000;" vertex="1" parent="1">
                    <mxGeometry x="1065.01" y="293" width="74.01" height="74.0156" as="geometry"/>
                </mxCell>
                <mxCell id="28" value="&lt;font size=&quot;1&quot;&gt;&lt;span style=&quot;font-size: 24px&quot;&gt;&lt;b&gt;Yes&lt;/b&gt;&lt;/span&gt;&lt;/font&gt;" style="text;html=1;strokeColor=none;fillColor=none;align=center;verticalAlign=middle;whiteSpace=wrap;rounded=0;" vertex="1" parent="1">
                    <mxGeometry x="1005.01" y="359.91999999999996" width="60" height="30" as="geometry"/>
                </mxCell>
                <mxCell id="29" value="&lt;font style=&quot;font-size: 22px&quot;&gt;Commit&lt;/font&gt;" style="text;html=1;strokeColor=none;fillColor=none;align=center;verticalAlign=middle;whiteSpace=wrap;rounded=0;" vertex="1" parent="1">
                    <mxGeometry x="1047.02" y="240" width="102.98" height="30" as="geometry"/>
                </mxCell>
                <mxCell id="32" value="" style="edgeStyle=segmentEdgeStyle;endArrow=classic;html=1;fontSize=29;strokeWidth=3;exitX=0.5;exitY=1;exitDx=0;exitDy=0;entryX=0.5;entryY=1;entryDx=0;entryDy=0;entryPerimeter=0;" edge="1" parent="1" source="sXQ_shVIrTNTRRweEwVG-26" target="8">
                    <mxGeometry width="50" height="50" relative="1" as="geometry">
                        <mxPoint x="848" y="480" as="sourcePoint"/>
                        <mxPoint x="718" y="410" as="targetPoint"/>
                        <Array as="points">
                            <mxPoint x="970" y="440"/>
                            <mxPoint x="59" y="440"/>
                        </Array>
                    </mxGeometry>
                </mxCell>
            </root>
        </mxGraphModel>
    </diagram>
</mxfile>
